name rise30.8019peak61.5557fall86.2505.mot
datacolumns 19
datarows 21
range 5.09664800000000 5.12998700000000
endheader
time	ground_force1_vx	ground_force1_vy	ground_force1_vz	ground_force1_px	ground_force1_py	ground_force1_pz	ground_force2_vx	ground_force2_vy	ground_force2_vz	ground_force2_px	ground_force2_py	ground_force2_pz	ground_torque1_x	ground_torque1_y	ground_torque1_z	ground_torque2_x	ground_torque2_y	ground_torque2_z	
5.09664800000000	53.54230600000000	762.23976500000003	43.26781900000000	0.24148300000000	0.00000000000000	0.10946600000000	0.00000000000000	0.00000000000000	0.00000000000000	0.00000000000000	0.00000000000000	0.00000000000000	0.00000000000000	9.70434200000000	0.00000000000000	0.00000000000000	0.00000000000000	0.00000000000000	
5.09831300000000	52.94815300000000	763.17730500000005	43.34386600000000	0.24046700000000	0.00000000000000	0.10946700000000	0.00000000000000	0.00000000000000	0.00000000000000	0.00000000000000	0.00000000000000	0.00000000000000	0.00000000000000	9.75578200000000	0.00000000000000	0.00000000000000	0.00000000000000	0.00000000000000	
5.09998700000000	52.35269200000000	763.97678900000005	43.41534800000000	0.23944800000000	0.00000000000000	0.10946900000000	0.00000000000000	0.00000000000000	0.00000000000000	0.00000000000000	0.00000000000000	0.00000000000000	0.00000000000000	9.80557700000000	0.00000000000000	0.00000000000000	0.00000000000000	0.00000000000000	
5.10164700000000	51.75567800000000	764.63866099999996	43.48178000000000	0.23842500000000	0.00000000000000	0.10947200000000	0.00000000000000	0.00000000000000	0.00000000000000	0.00000000000000	0.00000000000000	0.00000000000000	0.00000000000000	9.85358300000000	0.00000000000000	0.00000000000000	0.00000000000000	0.00000000000000	
5.10332200000000	51.15685500000000	765.16357400000004	43.54265800000000	0.23739700000000	0.00000000000000	0.10947500000000	0.00000000000000	0.00000000000000	0.00000000000000	0.00000000000000	0.00000000000000	0.00000000000000	0.00000000000000	9.89965100000000	0.00000000000000	0.00000000000000	0.00000000000000	0.00000000000000	
5.10498100000000	50.55596200000000	765.55238499999996	43.59746700000000	0.23636200000000	0.00000000000000	0.10947900000000	0.00000000000000	0.00000000000000	0.00000000000000	0.00000000000000	0.00000000000000	0.00000000000000	0.00000000000000	9.94363200000000	0.00000000000000	0.00000000000000	0.00000000000000	0.00000000000000	
5.10665400000000	49.95274000000000	765.80616499999996	43.64568400000000	0.23532100000000	0.00000000000000	0.10948400000000	0.00000000000000	0.00000000000000	0.00000000000000	0.00000000000000	0.00000000000000	0.00000000000000	0.00000000000000	9.98537600000000	0.00000000000000	0.00000000000000	0.00000000000000	0.00000000000000	
5.10831800000000	49.34693400000000	765.92619800000000	43.68678300000000	0.23427100000000	0.00000000000000	0.10949000000000	0.00000000000000	0.00000000000000	0.00000000000000	0.00000000000000	0.00000000000000	0.00000000000000	0.00000000000000	10.02473300000000	0.00000000000000	0.00000000000000	0.00000000000000	0.00000000000000	
5.10998400000000	48.73829600000000	765.91397900000004	43.72023700000000	0.23321300000000	0.00000000000000	0.10949700000000	0.00000000000000	0.00000000000000	0.00000000000000	0.00000000000000	0.00000000000000	0.00000000000000	0.00000000000000	10.06155700000000	0.00000000000000	0.00000000000000	0.00000000000000	0.00000000000000	
5.11165100000000	48.12659200000000	765.77121699999998	43.74552600000000	0.23214400000000	0.00000000000000	0.10950400000000	0.00000000000000	0.00000000000000	0.00000000000000	0.00000000000000	0.00000000000000	0.00000000000000	0.00000000000000	10.09570300000000	0.00000000000000	0.00000000000000	0.00000000000000	0.00000000000000	
5.11332000000000	47.51160600000000	765.49983299999997	43.76214000000000	0.23106600000000	0.00000000000000	0.10951200000000	0.00000000000000	0.00000000000000	0.00000000000000	0.00000000000000	0.00000000000000	0.00000000000000	0.00000000000000	10.12703600000000	0.00000000000000	0.00000000000000	0.00000000000000	0.00000000000000	
5.11501000000000	46.89313900000000	765.10195799999997	43.76958300000000	0.22997600000000	0.00000000000000	0.10952000000000	0.00000000000000	0.00000000000000	0.00000000000000	0.00000000000000	0.00000000000000	0.00000000000000	0.00000000000000	10.15542400000000	0.00000000000000	0.00000000000000	0.00000000000000	0.00000000000000	
5.11664900000000	46.27101800000000	764.57993199999999	43.76737900000000	0.22887500000000	0.00000000000000	0.10952900000000	0.00000000000000	0.00000000000000	0.00000000000000	0.00000000000000	0.00000000000000	0.00000000000000	0.00000000000000	10.18074500000000	0.00000000000000	0.00000000000000	0.00000000000000	0.00000000000000	
5.11831500000000	45.64509600000000	763.93629699999997	43.75507200000000	0.22776100000000	0.00000000000000	0.10953900000000	0.00000000000000	0.00000000000000	0.00000000000000	0.00000000000000	0.00000000000000	0.00000000000000	0.00000000000000	10.20288600000000	0.00000000000000	0.00000000000000	0.00000000000000	0.00000000000000	
5.11998500000000	45.01525300000000	763.17379900000003	43.73223400000000	0.22663600000000	0.00000000000000	0.10954900000000	0.00000000000000	0.00000000000000	0.00000000000000	0.00000000000000	0.00000000000000	0.00000000000000	0.00000000000000	10.22174500000000	0.00000000000000	0.00000000000000	0.00000000000000	0.00000000000000	
5.12165400000000	44.38140300000000	762.29537800000003	43.69846800000000	0.22549700000000	0.00000000000000	0.10956000000000	0.00000000000000	0.00000000000000	0.00000000000000	0.00000000000000	0.00000000000000	0.00000000000000	0.00000000000000	10.23722900000000	0.00000000000000	0.00000000000000	0.00000000000000	0.00000000000000	
5.12331900000000	43.74349100000000	761.30416400000001	43.65340700000000	0.22434600000000	0.00000000000000	0.10957100000000	0.00000000000000	0.00000000000000	0.00000000000000	0.00000000000000	0.00000000000000	0.00000000000000	0.00000000000000	10.24926100000000	0.00000000000000	0.00000000000000	0.00000000000000	0.00000000000000	
5.12498700000000	43.10149900000000	760.20347100000004	43.59672500000000	0.22318300000000	0.00000000000000	0.10958300000000	0.00000000000000	0.00000000000000	0.00000000000000	0.00000000000000	0.00000000000000	0.00000000000000	0.00000000000000	10.25777600000000	0.00000000000000	0.00000000000000	0.00000000000000	0.00000000000000	
5.12665000000000	42.45544300000000	758.99679200000003	43.52813100000000	0.22200600000000	0.00000000000000	0.10959500000000	0.00000000000000	0.00000000000000	0.00000000000000	0.00000000000000	0.00000000000000	0.00000000000000	0.00000000000000	10.26272100000000	0.00000000000000	0.00000000000000	0.00000000000000	0.00000000000000	
5.12832100000000	41.80537900000000	757.68778899999995	43.44737900000000	0.22081700000000	0.00000000000000	0.10960700000000	0.00000000000000	0.00000000000000	0.00000000000000	0.00000000000000	0.00000000000000	0.00000000000000	0.00000000000000	10.26406200000000	0.00000000000000	0.00000000000000	0.00000000000000	0.00000000000000	
5.12998700000000	41.15139700000000	756.28028600000005	43.35426600000000	0.21961600000000	0.00000000000000	0.10961900000000	0.00000000000000	0.00000000000000	0.00000000000000	0.00000000000000	0.00000000000000	0.00000000000000	0.00000000000000	10.26177600000000	0.00000000000000	0.00000000000000	0.00000000000000	0.00000000000000	
